<?xml version="1.0" standalone="no"?>
<!DOCTYPE svg PUBLIC "-//W3C//DTD SVG 20010904//EN"
 "http://www.w3.org/TR/2001/REC-SVG-20010904/DTD/svg10.dtd">
<svg version="1.0" xmlns="http://www.w3.org/2000/svg"
 width="260.000000pt" height="260.000000pt" viewBox="0 0 260.000000 260.000000"
 preserveAspectRatio="xMidYMid meet">
<metadata>
Created by potrace 1.11, written by Peter Selinger 2001-2013
</metadata>
<g transform="translate(0.000000,260.000000) scale(0.100000,-0.100000)"
fill="#000000" stroke="none">
<path d="M2128 2502 l-98 -97 0 -123 c0 -97 -3 -122 -14 -122 -7 0 -19 7 -26
15 -7 8 -40 35 -74 58 -297 211 -673 275 -1026 176 -108 -31 -316 -127 -346
-160 -9 -11 -23 -19 -31 -19 -21 0 -255 -238 -299 -305 -97 -145 -181 -354
-192 -477 -2 -27 -8 -48 -13 -48 -5 0 -9 -71 -9 -160 0 -100 4 -160 10 -160 6
0 10 -15 10 -32 1 -43 31 -158 66 -244 67 -170 172 -323 312 -454 53 -51 114
-100 134 -111 20 -10 40 -24 43 -29 9 -15 175 -93 255 -120 122 -41 241 -63
370 -67 113 -4 138 -1 255 27 71 17 150 38 174 46 57 19 219 101 238 119 8 8
19 15 24 15 11 0 128 98 184 155 64 64 152 171 160 194 3 12 10 21 14 21 10 0
101 182 101 202 0 8 5 19 10 24 32 32 70 257 69 414 0 244 -38 382 -173 634
-24 45 -70 108 -103 142 -7 7 -13 19 -13 27 0 11 22 13 125 9 l126 -5 95 99
c128 134 127 138 -33 142 -68 1 -123 6 -123 10 0 5 16 24 35 42 22 22 35 42
33 55 -5 34 -37 30 -78 -10 -28 -28 -40 -34 -46 -24 -4 7 -10 64 -12 126 -4
96 -7 113 -21 112 -9 0 -60 -44 -113 -97z m77 -121 l0 -99 -49 -51 c-30 -33
-54 -50 -63 -47 -8 3 -11 11 -7 17 3 6 6 49 5 95 l-2 84 47 50 c26 28 52 50
58 50 7 0 11 -33 11 -99z m-808 4 c19 -8 54 -15 77 -15 22 0 50 -7 60 -15 11
-8 30 -15 42 -15 12 0 37 -8 56 -17 60 -30 68 -33 82 -33 7 0 19 -7 26 -15 7
-8 20 -15 30 -15 10 0 20 -7 24 -15 3 -8 14 -15 25 -15 11 0 21 -3 23 -7 2 -5
25 -23 51 -42 26 -18 64 -47 83 -65 l34 -31 -141 -143 c-78 -78 -144 -142
-147 -142 -3 0 -28 17 -56 38 -28 20 -69 46 -91 57 -22 11 -42 22 -45 25 -9 9
-75 32 -118 41 -23 5 -51 13 -61 19 -31 16 -232 13 -274 -5 -20 -8 -48 -15
-62 -15 -14 0 -33 -4 -43 -10 -9 -5 -39 -19 -67 -31 -27 -12 -52 -24 -55 -28
-7 -8 -40 -29 -65 -40 -28 -13 -175 -160 -175 -176 0 -7 -6 -17 -13 -24 -8 -6
-26 -37 -41 -68 -15 -32 -34 -71 -42 -86 -8 -16 -14 -41 -14 -55 -1 -15 -7
-38 -15 -52 -10 -18 -14 -60 -14 -150 0 -90 4 -132 14 -150 8 -14 14 -37 15
-52 0 -14 8 -41 17 -60 29 -58 33 -68 33 -77 0 -40 228 -291 264 -291 8 0 19
-7 26 -15 7 -8 19 -15 27 -15 8 0 21 -7 29 -15 9 -8 24 -15 34 -15 10 0 22 -4
25 -10 3 -5 18 -10 33 -10 15 -1 38 -7 52 -15 37 -21 316 -21 356 0 16 8 41
15 56 15 15 0 30 5 33 10 3 6 15 10 25 10 10 0 25 7 34 15 8 8 21 15 30 15 8
0 19 6 23 13 4 6 24 21 43 31 46 26 210 195 210 217 0 9 7 19 15 23 8 3 15 14
15 24 0 11 7 25 15 32 8 7 15 21 15 31 0 10 4 20 9 24 6 3 13 26 17 50 3 25
10 48 15 51 12 7 12 321 0 328 -5 3 -12 26 -15 51 -4 25 -11 45 -17 45 -5 0
-9 11 -9 24 0 14 -7 31 -15 40 -8 8 -15 19 -15 24 0 12 -64 109 -91 137 -18
21 -17 22 126 165 l145 145 36 -40 c20 -22 48 -58 63 -80 14 -22 31 -45 36
-51 11 -11 92 -172 105 -209 30 -80 40 -114 40 -140 1 -17 7 -41 15 -55 21
-37 21 -393 0 -443 -8 -20 -15 -52 -15 -72 0 -19 -4 -35 -9 -35 -5 0 -12 -15
-16 -33 -6 -31 -11 -44 -40 -112 -7 -16 -16 -37 -19 -45 -30 -71 -153 -236
-226 -305 -93 -88 -223 -185 -248 -185 -5 0 -15 -7 -22 -15 -7 -8 -20 -15 -30
-15 -10 0 -23 -7 -30 -15 -7 -8 -23 -15 -36 -15 -12 0 -25 -4 -29 -9 -3 -5
-20 -13 -37 -17 -18 -3 -39 -10 -48 -15 -8 -4 -36 -11 -62 -14 -26 -3 -50 -10
-53 -16 -4 -5 -95 -9 -214 -9 -166 0 -215 3 -237 15 -16 8 -46 15 -66 15 -21
0 -38 5 -38 10 0 6 -13 10 -28 10 -16 0 -37 7 -48 15 -10 8 -26 15 -35 15 -9
0 -22 7 -29 15 -7 8 -23 15 -35 15 -13 0 -25 7 -29 15 -3 8 -15 15 -26 15 -11
0 -20 5 -20 10 0 6 -5 10 -10 10 -12 0 -73 41 -78 53 -2 4 -9 7 -15 7 -13 1
-247 232 -247 245 0 4 -10 22 -23 39 -13 17 -27 38 -30 46 -4 8 -18 33 -32 55
-13 22 -24 46 -25 53 0 7 -7 20 -15 28 -8 9 -15 24 -15 34 0 10 -5 22 -10 25
-5 3 -10 19 -10 34 0 15 -7 36 -15 47 -8 10 -15 35 -15 55 0 20 -7 53 -15 72
-21 52 -21 342 0 394 8 19 15 52 15 72 0 20 7 45 15 55 8 11 15 32 15 48 0 15
5 28 10 28 6 0 10 9 10 19 0 29 72 165 123 232 15 20 27 40 27 43 0 18 218
236 236 236 3 0 23 14 44 30 21 17 42 30 48 30 5 0 15 7 22 15 7 8 19 15 27
15 8 0 21 7 29 15 9 8 24 15 35 15 10 0 19 5 19 10 0 6 8 10 18 10 9 0 30 7
46 15 15 8 38 15 50 15 12 0 31 7 42 15 10 8 37 15 59 15 22 1 56 8 75 15 52
20 309 20 357 0z m1083 -162 c0 -5 -24 -32 -54 -61 l-54 -54 -106 -1 c-58 0
-109 3 -113 6 -4 4 18 32 47 62 l54 55 113 0 c62 0 113 -3 113 -7z m-1095
-314 c5 -5 21 -9 35 -9 14 0 35 -7 46 -15 10 -8 26 -15 35 -15 9 0 22 -7 29
-15 7 -8 21 -15 30 -15 10 0 20 -3 22 -7 2 -5 22 -21 46 -37 23 -16 42 -34 42
-39 0 -14 -240 -261 -257 -265 -7 -2 -13 0 -13 5 0 12 -56 38 -127 58 -58 17
-65 17 -106 1 -23 -9 -53 -16 -65 -16 -12 0 -22 -4 -22 -10 0 -5 -6 -10 -13
-10 -18 0 -127 -107 -127 -125 0 -8 -3 -15 -8 -15 -8 0 -30 -75 -39 -131 -3
-23 1 -48 11 -67 9 -17 16 -40 16 -51 0 -51 118 -170 183 -186 15 -4 30 -11
33 -16 7 -12 161 -11 169 1 3 6 15 10 25 10 10 0 25 7 34 15 8 8 19 15 24 15
13 0 102 89 102 102 0 5 7 16 15 24 8 9 15 26 15 39 0 13 5 27 10 30 29 18 1
191 -37 237 -8 9 -13 26 -11 37 3 20 233 261 249 261 5 0 14 -10 20 -22 6 -12
22 -33 35 -47 13 -14 24 -31 24 -37 0 -6 7 -17 15 -24 8 -7 15 -20 15 -30 0
-10 7 -23 15 -30 8 -7 15 -22 15 -34 0 -11 7 -41 16 -65 25 -73 20 -350 -7
-367 -5 -3 -9 -14 -9 -26 0 -18 -15 -52 -42 -98 -5 -8 -11 -23 -14 -32 -4 -10
-10 -18 -14 -18 -4 0 -12 -11 -18 -25 -24 -51 -178 -195 -210 -195 -5 0 -15
-7 -22 -15 -7 -8 -20 -15 -30 -15 -10 0 -23 -7 -30 -15 -7 -8 -22 -15 -35 -15
-12 0 -35 -6 -51 -14 -62 -30 -372 -27 -382 3 -2 6 -16 11 -32 11 -16 0 -35 7
-44 15 -8 8 -23 15 -34 15 -11 0 -22 7 -26 15 -3 8 -15 15 -26 15 -11 0 -20 4
-20 8 0 5 -21 24 -47 42 -27 18 -57 43 -68 54 -29 30 -105 135 -105 145 0 5
-7 14 -15 21 -8 7 -15 21 -15 32 0 11 -7 26 -15 34 -8 9 -15 28 -15 43 0 15
-5 32 -12 39 -15 15 -16 325 -1 344 6 7 13 30 17 51 4 20 11 37 16 37 6 0 10
9 10 20 0 24 77 139 128 193 43 45 146 127 160 127 5 0 15 7 22 15 7 8 22 15
34 15 11 0 30 7 40 15 11 8 32 15 46 15 14 0 30 4 36 9 18 19 308 19 329 0z
m-90 -419 c3 -5 17 -10 30 -10 13 0 28 -8 34 -17 8 -15 -8 -35 -85 -115 -95
-97 -95 -98 -78 -123 9 -14 19 -25 21 -25 3 0 48 43 101 95 52 52 101 95 109
95 7 0 16 -8 19 -17 3 -10 12 -30 20 -45 20 -36 19 -161 -1 -178 -8 -7 -15
-20 -15 -29 0 -20 -81 -99 -127 -124 -40 -22 -170 -24 -199 -2 -10 8 -24 15
-31 15 -21 0 -81 64 -107 114 -21 39 -26 63 -26 117 0 152 108 258 262 259 37
0 70 -4 73 -10z"/>
</g>
</svg>
