<?xml version="1.0" standalone="no"?>
<!DOCTYPE svg PUBLIC "-//W3C//DTD SVG 20010904//EN"
 "http://www.w3.org/TR/2001/REC-SVG-20010904/DTD/svg10.dtd">
<svg version="1.0" xmlns="http://www.w3.org/2000/svg"
 width="260.000000pt" height="260.000000pt" viewBox="0 0 260.000000 260.000000"
 preserveAspectRatio="xMidYMid meet">
<metadata>
Created by potrace 1.11, written by Peter Selinger 2001-2013
</metadata>
<g transform="translate(0.000000,260.000000) scale(0.100000,-0.100000)"
fill="#000000" stroke="none">
<path d="M2220 2590 c13 -9 13 -10 0 -10 -8 0 -54 -38 -101 -84 l-86 -84 -1
-119 c0 -65 -1 -123 -1 -130 -1 -8 -10 -7 -30 5 -16 9 -28 19 -25 23 4 7 -26
23 -38 21 -5 -1 -8 3 -8 8 0 6 -11 15 -25 22 -13 6 -22 15 -19 19 3 5 -4 9
-14 9 -11 0 -25 7 -32 15 -7 9 -15 13 -18 10 -3 -3 -16 5 -30 17 -13 13 -25
22 -28 21 -10 -7 -25 -2 -20 5 3 5 0 9 -7 10 -21 2 -42 7 -52 14 -25 15 -119
47 -127 42 -4 -3 -8 -1 -8 5 0 6 -7 7 -17 4 -10 -4 -14 -2 -10 4 4 7 0 10 -10
9 -10 -2 -37 2 -60 9 -25 8 -40 9 -37 3 4 -6 -3 -5 -15 1 -11 7 -21 9 -21 6 0
-3 -8 -1 -18 4 -11 6 -24 6 -36 -1 -13 -7 -17 -7 -12 0 4 7 -16 10 -60 8 -36
-1 -68 2 -70 6 -3 5 -10 5 -16 2 -6 -4 -23 -8 -37 -10 -14 -1 -26 -3 -26 -4 0
-1 -12 -3 -28 -5 -19 -3 -25 0 -20 8 3 7 -2 4 -13 -5 -16 -14 -23 -15 -32 -6
-7 7 -12 8 -12 2 0 -5 -10 -10 -23 -11 -44 -4 -59 -10 -68 -24 -6 -10 -9 -11
-9 -1 0 10 -5 10 -20 2 -11 -6 -25 -8 -30 -5 -6 4 -12 0 -15 -7 -3 -8 -14 -14
-24 -15 -11 -1 -41 -12 -68 -24 -26 -12 -49 -20 -49 -18 -1 2 -11 -5 -23 -15
-12 -11 -21 -15 -21 -11 0 4 -9 0 -19 -9 -11 -10 -25 -15 -32 -10 -8 4 -10 3
-5 -4 4 -7 -3 -14 -19 -18 -14 -3 -25 -10 -25 -14 0 -4 -18 -19 -40 -34 -71
-47 -180 -149 -235 -220 -16 -21 -37 -46 -45 -54 -8 -9 -15 -18 -15 -21 -2
-15 -42 -70 -48 -65 -4 4 -4 -3 -2 -15 2 -13 -2 -24 -9 -27 -13 -5 -30 -40
-27 -56 1 -5 -4 -8 -10 -8 -5 0 -7 -4 -4 -10 3 -5 1 -10 -4 -10 -6 0 -10 -3
-9 -7 0 -5 -6 -24 -15 -43 -8 -19 -13 -38 -11 -42 3 -5 0 -8 -6 -8 -6 0 -8 -4
-5 -10 3 -5 2 -10 -4 -10 -5 0 -8 -8 -6 -17 1 -10 -2 -24 -8 -31 -5 -7 -7 -15
-4 -19 4 -3 2 -11 -3 -18 -5 -7 -11 -26 -13 -43 -2 -17 -10 -39 -18 -48 -9
-12 -9 -15 -1 -10 15 9 15 1 1 -26 -9 -16 -8 -19 3 -12 10 6 11 5 1 -7 -16
-20 -16 -278 0 -298 7 -9 8 -12 1 -8 -6 3 -11 0 -11 -8 0 -8 5 -12 10 -8 5 3
6 -3 2 -16 -3 -12 -2 -21 3 -21 6 0 9 -8 7 -18 -1 -9 2 -25 7 -36 7 -14 7 -16
-2 -11 -9 5 -8 1 1 -16 7 -13 12 -27 11 -31 -1 -5 2 -8 6 -8 5 0 8 -10 7 -23
-1 -12 3 -28 8 -36 6 -7 12 -18 13 -25 1 -6 8 -24 15 -41 6 -16 13 -34 14 -40
3 -9 72 -132 108 -190 6 -11 22 -30 34 -41 12 -12 20 -24 17 -27 -3 -3 6 -14
20 -25 15 -11 26 -23 26 -27 0 -10 100 -105 111 -105 5 0 9 -7 9 -17 0 -9 3
-14 6 -10 3 3 14 -2 24 -11 11 -10 30 -27 44 -39 13 -12 27 -19 30 -16 3 4 6
1 6 -6 0 -7 4 -10 9 -7 5 3 14 -1 21 -8 15 -19 86 -56 108 -56 13 0 14 -2 4
-9 -10 -6 -4 -10 20 -16 18 -4 36 -7 41 -6 4 0 7 -3 7 -8 0 -5 16 -12 35 -15
20 -4 34 -10 31 -14 -3 -4 7 -9 20 -10 14 -1 33 -6 43 -12 10 -5 21 -7 24 -3
4 3 13 0 22 -7 8 -7 21 -10 30 -7 8 4 17 2 20 -2 3 -5 14 -7 25 -4 11 3 20 1
20 -5 0 -6 11 -9 25 -7 14 1 25 -1 25 -6 0 -5 7 -6 15 -3 8 4 15 1 15 -6 0 -6
5 -8 12 -4 19 12 48 12 48 1 0 -5 7 -4 15 3 12 10 15 10 15 0 0 -10 3 -10 15
0 12 10 15 10 15 0 0 -8 4 -9 13 -3 6 5 36 8 65 8 29 -1 55 2 58 7 3 4 10 8
15 8 6 0 7 -4 4 -10 -3 -5 -1 -10 4 -10 6 0 11 5 11 11 0 6 7 9 15 5 8 -3 15
-2 15 2 0 4 16 9 36 10 49 4 58 6 65 15 3 4 22 9 42 11 20 2 48 11 62 20 15
10 29 15 32 12 4 -3 21 4 40 15 18 11 33 17 33 13 0 -4 9 1 21 12 12 10 23 17
25 14 2 -3 13 3 24 12 11 10 24 18 29 18 5 0 16 6 23 12 7 7 25 19 40 27 15 8
38 24 50 35 12 12 24 20 25 19 2 -2 2 -1 1 1 -2 3 15 18 37 34 22 16 54 45 72
65 17 19 34 33 37 30 3 -4 6 -2 6 4 0 5 14 24 30 41 17 18 30 35 30 38 0 4 14
22 30 41 17 18 30 40 30 48 0 8 5 15 10 15 6 0 10 7 10 15 0 8 4 15 8 15 7 0
32 40 37 60 1 3 11 25 22 50 23 47 33 79 32 94 0 5 4 12 10 15 6 4 12 19 13
34 1 15 7 27 12 27 5 0 6 3 3 7 -4 3 -1 13 6 21 10 13 9 14 -1 8 -11 -7 -12
-4 -2 13 6 12 9 27 7 34 -2 7 3 18 12 25 9 8 10 11 3 7 -8 -4 -11 1 -8 17 2
13 10 22 17 20 10 -3 10 0 -1 12 -7 9 -9 16 -4 16 13 0 8 290 -5 323 -14 36
-14 40 2 31 9 -6 9 -4 -1 8 -7 8 -14 31 -16 49 -2 19 -9 48 -16 64 -6 17 -13
42 -13 57 -1 14 -5 24 -8 22 -4 -2 -10 8 -14 24 -10 43 -38 102 -48 102 -5 0
-7 7 -3 15 3 8 2 15 -2 15 -4 0 -16 20 -27 44 -11 24 -23 42 -27 40 -5 -3 -8
4 -8 16 0 12 -4 18 -10 15 -5 -3 -10 0 -10 8 0 8 -11 25 -25 38 -13 13 -25 29
-25 36 0 6 -8 14 -18 17 -10 3 -18 14 -18 24 0 14 9 18 42 18 24 0 40 -4 37
-9 -3 -5 4 -4 16 2 15 8 21 9 21 1 0 -6 5 -8 12 -4 7 4 24 8 38 8 14 0 31 -4
38 -8 7 -4 12 -2 12 3 0 6 5 11 11 11 5 0 7 -5 3 -11 -12 -20 55 21 70 43 9
12 16 19 16 15 0 -4 6 -2 14 5 8 7 13 15 13 18 -1 3 21 29 48 58 28 30 49 60
49 68 -1 8 -2 18 -3 24 -1 6 -48 9 -118 8 -76 -1 -118 3 -121 10 -1 5 16 28
40 51 l43 40 -21 22 c-22 21 -22 21 -47 3 -14 -11 -31 -28 -37 -40 -11 -19
-39 -29 -41 -15 -1 3 -2 51 -2 106 -1 55 -5 105 -10 112 -4 6 -1 14 5 16 7 3
-3 6 -22 6 -26 1 -31 -2 -20 -9z m-14 -172 c-1 -42 2 -68 8 -69 8 0 8 -2 0 -5
-6 -2 -9 -17 -6 -32 3 -22 -6 -38 -46 -79 -28 -28 -48 -54 -46 -56 3 -3 -2 -7
-10 -10 -9 -4 -15 -3 -15 1 1 4 1 9 0 12 -7 17 -5 90 2 90 5 0 5 6 0 13 -14
22 -12 36 5 30 14 -6 14 -4 -1 17 -13 18 -14 28 -5 44 6 12 12 23 12 26 1 9
56 60 57 52 0 -4 4 2 9 14 4 11 15 21 24 21 12 0 15 -13 12 -69z m-931 -22
c28 1 53 -4 57 -10 6 -8 8 -8 8 1 0 9 7 10 25 3 18 -7 25 -6 25 2 0 7 6 6 18
-4 9 -8 24 -14 32 -13 8 1 30 -4 49 -12 31 -12 33 -12 20 4 -13 17 -12 17 6 1
11 -9 35 -19 54 -21 19 -3 37 -9 40 -14 3 -4 12 -9 19 -10 6 -2 18 -4 24 -5 7
-2 19 -9 26 -15 7 -7 22 -13 33 -13 10 0 19 -4 19 -9 0 -5 14 -12 30 -16 17
-4 30 -11 30 -16 0 -5 11 -11 25 -15 14 -3 23 -10 20 -14 -3 -4 7 -11 20 -14
16 -4 23 -11 19 -18 -4 -7 -3 -8 4 -4 11 7 32 -8 78 -52 13 -13 24 -19 24 -15
0 4 7 -2 15 -14 15 -21 11 -27 -129 -166 l-144 -145 -33 29 c-18 15 -48 36
-66 46 -18 10 -33 21 -33 26 0 4 -4 5 -10 2 -5 -3 -10 -1 -10 4 0 6 -9 11 -19
11 -11 0 -21 3 -23 8 -5 11 -100 45 -130 46 -16 0 -28 4 -28 8 0 4 -7 4 -17 1
-10 -4 -14 -2 -9 5 4 7 -29 9 -116 7 -144 -5 -176 -8 -203 -22 -11 -6 -26 -8
-34 -5 -9 3 -11 0 -6 -8 6 -10 4 -12 -8 -7 -10 3 -17 2 -17 -4 0 -6 -4 -8 -8
-5 -5 3 -25 -4 -45 -14 -20 -11 -44 -20 -54 -20 -9 0 -13 -3 -10 -7 6 -6 -14
-21 -53 -39 -8 -4 -19 -14 -23 -21 -5 -7 -11 -12 -15 -10 -4 2 -33 -23 -64
-55 -32 -32 -55 -58 -52 -58 5 0 -7 -16 -37 -49 -14 -15 -30 -46 -33 -61 -1
-3 -12 -22 -24 -42 -13 -21 -21 -42 -17 -48 3 -6 0 -12 -7 -15 -8 -3 -15 -13
-16 -23 -3 -32 -8 -47 -16 -61 -6 -10 -5 -12 2 -7 16 10 15 -2 -1 -19 -8 -7
-13 -34 -13 -64 1 -28 -2 -51 -7 -51 -4 0 -5 -5 -1 -12 4 -6 7 -37 7 -67 0
-31 4 -64 9 -73 6 -13 5 -18 -4 -19 -10 0 -10 -2 0 -6 6 -2 10 -9 6 -14 -3 -5
-1 -9 5 -9 5 0 8 -9 6 -20 -2 -11 1 -20 6 -20 6 0 8 -4 5 -8 -3 -5 2 -21 9
-36 8 -16 13 -32 10 -36 -3 -4 2 -13 10 -20 8 -7 15 -18 15 -26 0 -7 6 -19 14
-26 7 -8 17 -24 20 -36 4 -12 12 -22 17 -22 5 0 9 -5 9 -11 0 -7 14 -25 30
-41 17 -15 30 -30 30 -33 0 -9 72 -76 77 -71 7 7 50 -38 45 -48 -3 -5 0 -6 5
-3 6 4 22 -3 37 -14 14 -11 26 -18 26 -14 0 3 13 -3 30 -15 16 -12 30 -18 30
-14 0 4 10 -1 22 -12 14 -13 19 -14 14 -4 -6 13 -6 13 6 0 7 -9 23 -15 35 -14
13 1 27 -4 33 -11 6 -7 26 -11 45 -9 19 1 35 -1 35 -5 0 -12 254 -5 258 8 2 6
8 11 13 11 6 0 7 -5 3 -11 -3 -6 6 -3 22 7 21 14 26 15 19 4 -7 -12 -6 -13 6
-3 8 6 23 13 34 15 11 1 26 9 34 16 8 8 22 11 33 9 10 -3 16 -1 13 3 -3 5 4
12 16 15 11 4 30 16 40 26 11 11 24 17 29 14 6 -4 13 1 16 9 3 9 10 16 15 16
6 0 23 14 39 30 17 17 30 28 30 26 0 -3 11 5 25 18 14 13 25 28 25 34 0 6 3
12 8 14 11 5 75 88 67 88 -3 0 1 7 9 16 9 8 16 21 16 29 0 7 5 15 11 17 6 2
12 16 12 31 1 15 7 27 14 27 6 0 10 9 8 20 -2 11 1 20 6 20 6 0 9 6 6 13 -2 6
2 26 9 43 7 17 10 34 7 38 -4 3 -2 6 3 6 13 0 9 249 -4 281 -6 15 -8 30 -5 33
4 3 2 6 -3 6 -5 0 -11 15 -12 33 -1 17 -8 37 -15 42 -6 6 -13 21 -15 35 -1 14
-7 27 -12 28 -6 2 -8 8 -4 13 3 5 0 9 -6 9 -6 0 -9 4 -5 9 3 6 -1 13 -9 18 -8
4 -16 14 -18 22 -3 16 -22 42 -53 75 -21 22 -26 44 -11 49 12 3 122 111 120
117 -1 3 13 16 31 30 19 14 36 34 39 45 5 17 7 18 16 5 8 -12 10 -10 10 9 0
13 3 22 6 18 3 -3 19 8 35 26 16 17 29 27 29 21 0 -6 10 -22 23 -35 49 -53 71
-82 57 -74 -8 4 -3 -4 13 -17 15 -14 27 -31 27 -37 0 -6 7 -14 16 -18 13 -5
13 -7 2 -14 -10 -7 -9 -9 5 -9 10 0 17 -8 17 -19 0 -10 7 -24 15 -31 8 -6 14
-15 14 -18 -2 -16 14 -52 23 -52 6 0 8 -9 5 -20 -3 -11 -2 -20 2 -20 5 0 15
-18 23 -39 12 -29 13 -42 4 -52 -8 -9 -8 -10 0 -6 10 6 28 -26 25 -45 0 -4 3
-18 8 -31 7 -17 6 -28 -2 -36 -9 -10 -9 -12 3 -9 18 4 21 -20 21 -202 1 -158
-1 -199 -11 -205 -4 -3 -5 -16 -2 -30 2 -14 0 -25 -6 -25 -6 0 -9 -11 -7 -25
1 -14 -2 -25 -7 -25 -5 0 -6 -5 -3 -10 4 -6 1 -17 -5 -25 -6 -8 -9 -19 -5 -25
3 -5 1 -10 -6 -10 -7 0 -9 -3 -6 -7 4 -3 -2 -20 -13 -38 -11 -18 -17 -35 -14
-38 4 -3 -3 -19 -15 -35 -11 -16 -18 -32 -14 -36 3 -3 1 -6 -5 -6 -7 0 -12 -9
-12 -19 0 -10 -7 -22 -16 -25 -8 -3 -13 -10 -10 -14 3 -5 -4 -18 -14 -30 -11
-12 -20 -26 -20 -32 0 -5 -5 -10 -11 -10 -5 0 -8 -4 -5 -8 3 -5 -3 -15 -12
-23 -9 -9 -27 -28 -39 -45 -37 -49 -55 -70 -47 -55 5 9 3 12 -4 7 -7 -4 -12
-12 -12 -17 0 -14 -26 -39 -39 -39 -6 0 -10 -3 -9 -7 2 -5 0 -8 -4 -8 -4 0
-15 -10 -23 -22 -9 -13 -23 -23 -31 -23 -8 0 -14 -5 -14 -10 0 -6 -11 -15 -25
-22 -13 -6 -22 -16 -18 -21 4 -6 0 -8 -10 -4 -10 3 -17 3 -17 -1 0 -10 -80
-58 -92 -54 -5 1 -7 -2 -4 -7 3 -5 -8 -14 -24 -20 -17 -5 -30 -7 -30 -3 0 4
-5 -1 -11 -11 -5 -9 -21 -17 -34 -17 -14 0 -25 -5 -25 -10 0 -6 -3 -9 -7 -9
-5 1 -10 0 -13 -1 -3 -1 -12 -3 -20 -5 -8 -2 -33 -10 -55 -18 -21 -8 -56 -14
-76 -13 -23 0 -35 -3 -32 -10 3 -8 -7 -11 -26 -9 -17 1 -31 0 -31 -4 0 -3 -31
-6 -70 -6 -42 1 -70 -4 -70 -10 0 -7 -3 -7 -8 0 -4 6 -36 11 -72 11 -90 1
-132 6 -149 18 -12 9 -13 8 -7 -3 6 -9 5 -12 -5 -9 -8 3 -13 10 -12 15 1 4
-15 8 -35 8 -20 -1 -48 5 -62 12 -15 7 -37 14 -51 15 -13 2 -30 9 -37 15 -7 7
-22 13 -33 13 -13 0 -18 4 -13 12 4 6 3 8 -3 5 -19 -12 -233 112 -233 135 0 6
-3 9 -6 5 -12 -12 -217 190 -208 205 3 4 -2 8 -11 8 -9 0 -14 4 -10 9 3 6 -3
14 -12 20 -10 6 -14 11 -10 11 4 0 -1 10 -13 22 -11 12 -20 28 -20 35 0 7 -4
13 -9 13 -8 0 -17 21 -19 44 0 5 -7 13 -16 18 -9 5 -16 17 -16 26 0 10 -6 24
-12 30 -7 7 -13 18 -14 25 0 7 -2 20 -2 30 -1 10 -6 16 -10 13 -5 -3 -9 0 -10
7 -5 42 -16 83 -23 87 -4 3 -10 25 -13 50 -2 25 -5 47 -6 50 -1 3 -2 8 -1 13
0 4 -3 7 -9 7 -5 0 -10 5 -10 11 0 5 5 7 11 3 8 -4 8 0 0 15 -7 12 -9 26 -6
31 3 6 3 15 0 21 -7 11 -10 152 -3 166 2 4 3 34 3 66 0 31 3 57 7 57 4 0 5 7
2 15 -4 8 -2 15 3 15 4 0 9 21 10 46 2 26 7 51 12 58 5 6 11 23 13 36 2 14 12
40 21 58 10 17 15 32 12 32 -3 0 1 10 10 23 8 13 12 27 8 30 -3 4 -1 7 6 7 7
0 9 5 6 10 -3 6 -2 10 3 10 6 0 12 10 16 23 3 12 15 32 26 45 11 12 16 22 11
22 -6 0 8 19 29 43 22 23 40 47 40 53 0 18 182 197 236 232 25 17 51 29 57 25
6 -3 7 -1 3 6 -5 7 6 17 28 26 20 9 36 20 36 25 0 6 3 9 8 8 8 -2 51 16 95 39
15 8 32 11 37 8 6 -3 10 -2 10 4 0 10 55 31 89 34 12 1 21 4 21 7 0 4 6 7 13
7 47 3 73 8 82 13 6 4 23 10 38 14 22 5 27 4 21 -6 -6 -10 -4 -10 7 -2 8 6 38
11 67 10 28 -1 52 3 52 8 0 5 6 4 13 -1 6 -5 35 -8 62 -7z m1196 -173 c4 -4
-16 -32 -45 -61 -40 -41 -62 -54 -90 -58 -24 -3 -35 -1 -31 6 4 6 -2 7 -17 1
-13 -5 -33 -5 -45 0 -13 5 -25 4 -28 -1 -9 -15 -27 -12 -19 3 6 10 4 10 -7 0
-18 -18 -26 -16 -31 5 -4 16 13 43 27 42 9 0 42 35 39 41 -5 8 36 28 66 31 47
6 173 -1 181 -9z m-1141 -302 c0 -3 17 -7 37 -8 21 -1 39 -6 41 -11 2 -6 11
-8 21 -5 10 2 25 -3 34 -12 9 -8 19 -16 22 -15 31 2 45 -2 45 -13 0 -7 9 -13
20 -14 11 -1 25 -7 32 -13 46 -39 62 -50 79 -55 10 -4 18 -11 16 -17 -3 -15
-145 -158 -157 -158 -6 0 -9 -3 -8 -7 1 -5 -19 -30 -44 -56 -43 -45 -47 -48
-69 -35 -13 7 -29 19 -37 26 -7 7 -18 10 -23 7 -5 -4 -9 -2 -9 3 0 5 -12 10
-26 10 -15 0 -30 6 -35 13 -7 11 -9 11 -9 1 0 -8 -5 -10 -12 -5 -17 10 -38 13
-38 5 0 -6 -29 -11 -102 -15 -14 -1 -24 -5 -22 -9 5 -7 -67 -53 -78 -50 -5 1
-8 -2 -8 -8 0 -14 -43 -56 -53 -52 -5 1 -6 -2 -3 -7 4 -5 -2 -24 -13 -43 -10
-18 -18 -43 -17 -55 2 -12 -1 -20 -6 -17 -9 6 -10 0 -12 -66 -1 -25 2 -47 5
-50 4 -3 9 -20 12 -38 7 -40 49 -108 88 -141 16 -13 26 -27 23 -32 -3 -5 2 -6
10 -3 9 3 18 0 21 -8 3 -8 15 -15 27 -15 12 -1 25 -8 29 -15 5 -7 9 -9 9 -4 0
5 6 3 13 -3 8 -6 16 -8 20 -5 3 3 15 1 26 -6 15 -8 21 -8 21 0 0 6 5 8 12 4
17 -11 69 -6 85 8 7 6 13 7 13 3 0 -4 6 -2 13 4 8 6 17 8 20 4 4 -3 7 -1 7 6
0 7 5 9 10 6 6 -3 13 1 16 9 3 9 10 13 15 10 5 -3 12 2 15 10 3 9 9 14 13 12
3 -2 19 11 36 28 16 17 27 32 25 33 -3 1 5 13 17 26 12 14 19 28 16 31 -3 3
-1 12 5 19 7 8 9 17 5 20 -3 4 0 7 8 7 11 0 11 2 -1 10 -12 8 -12 10 -1 10 8
0 11 7 8 20 -3 11 -2 20 1 20 4 0 7 11 7 25 0 14 -4 25 -8 25 -5 0 -7 8 -6 18
3 34 -1 53 -10 47 -6 -3 -8 4 -6 15 2 11 -1 20 -7 20 -5 0 -8 7 -4 15 3 8 1
15 -4 15 -14 0 -34 42 -23 49 5 3 12 14 16 24 4 10 11 15 17 12 5 -3 10 2 10
11 0 10 3 14 7 11 3 -4 17 8 30 25 12 18 23 29 23 25 0 -4 19 15 43 42 23 27
47 48 54 46 7 -2 10 2 6 11 -3 8 1 14 11 14 9 0 16 7 16 16 0 11 6 14 23 8 24
-7 38 -24 31 -35 -2 -4 3 -9 11 -13 8 -3 15 -12 15 -21 0 -8 5 -15 10 -15 6 0
10 -9 10 -21 0 -11 5 -17 10 -14 6 3 10 -1 10 -9 0 -9 5 -16 11 -16 5 0 8 -4
5 -8 -3 -5 3 -25 14 -44 10 -20 16 -38 13 -42 -3 -3 0 -12 6 -20 7 -8 13 -30
14 -50 1 -20 4 -36 7 -36 3 0 5 -12 4 -27 -1 -16 3 -36 8 -47 7 -13 7 -16 -1
-12 -6 4 -11 2 -11 -3 0 -6 6 -11 13 -11 9 0 8 -3 -2 -9 -10 -6 -10 -10 -1
-16 9 -6 9 -10 -1 -16 -12 -8 -11 -11 1 -19 12 -8 12 -10 1 -10 -8 0 -11 -7
-8 -20 3 -11 2 -20 -1 -20 -4 0 -8 -19 -9 -42 -1 -22 -5 -44 -10 -47 -8 -6
-11 -14 -16 -52 -2 -11 -8 -24 -13 -27 -5 -4 -9 -14 -9 -22 1 -8 -10 -28 -24
-44 -14 -16 -20 -25 -12 -21 8 5 1 -8 -15 -28 -16 -20 -33 -37 -37 -37 -5 0
-6 -4 -2 -9 3 -5 -3 -16 -13 -23 -11 -7 -20 -16 -21 -20 0 -5 -2 -8 -3 -7 -2
0 -25 -20 -53 -45 -27 -25 -64 -53 -82 -61 -18 -9 -33 -20 -33 -26 0 -6 -4 -8
-9 -4 -5 3 -12 1 -16 -4 -3 -6 -13 -7 -22 -4 -10 4 -14 2 -10 -4 5 -7 -6 -14
-25 -18 -18 -4 -38 -11 -44 -16 -12 -10 -87 -21 -151 -23 -24 0 -43 -5 -43
-11 0 -5 -5 -4 -11 2 -7 7 -21 8 -39 3 -19 -5 -30 -4 -33 3 -2 6 -25 12 -53
13 -27 1 -50 3 -51 4 -4 3 -19 7 -34 9 -5 0 -7 5 -4 11 3 5 0 7 -9 4 -8 -3
-28 1 -44 10 -16 8 -32 12 -36 9 -3 -4 -6 -1 -6 5 0 7 -7 12 -15 12 -8 0 -15
5 -15 12 0 6 -3 9 -6 5 -6 -6 -72 38 -86 58 -4 5 -8 7 -8 3 0 -4 -17 10 -39
30 -21 20 -36 40 -34 45 2 4 -3 7 -11 7 -9 0 -18 11 -22 25 -4 14 -9 23 -12
21 -5 -6 -27 26 -38 57 -3 9 -11 17 -16 17 -5 0 -6 5 -3 10 3 6 1 10 -4 10 -6
0 -11 13 -11 30 0 17 -5 29 -12 27 -6 -1 -12 9 -13 23 -2 14 -8 38 -14 53 -6
16 -9 33 -5 38 3 5 1 9 -5 9 -5 0 -8 15 -7 33 2 17 -2 35 -8 39 -7 5 -7 8 2 8
7 0 11 4 8 8 -13 22 -4 174 14 217 6 17 12 38 13 48 1 9 5 17 10 17 4 0 6 4 3
9 -3 5 1 14 9 21 8 7 12 16 9 21 -3 5 9 29 26 54 17 25 29 45 26 45 -6 0 62
77 94 106 71 64 96 84 108 84 6 0 12 5 12 10 0 6 6 10 13 10 7 0 18 5 25 12
13 13 79 39 105 41 9 1 17 5 17 9 0 4 7 5 15 2 8 -4 15 -2 15 4 0 6 11 9 25 7
14 -1 25 1 25 4 0 4 52 7 115 7 63 1 115 -2 115 -5z m-122 -419 c6 6 16 7 24
2 7 -5 23 -7 36 -5 12 1 22 -3 22 -9 0 -6 5 -8 10 -5 6 4 17 1 25 -5 8 -7 15
-9 15 -6 0 4 7 1 15 -8 8 -8 15 -18 15 -23 0 -11 -43 -48 -52 -45 -5 1 -7 -1
-6 -5 2 -5 -28 -39 -65 -77 -66 -68 -78 -86 -56 -86 5 0 8 -4 4 -9 -3 -5 -1
-12 5 -16 5 -3 10 -2 10 4 0 6 7 8 15 5 8 -4 15 -1 15 6 0 7 7 10 16 6 8 -3
12 -2 9 3 -3 5 5 17 17 25 12 9 20 16 16 16 -3 0 10 17 31 38 20 21 39 37 42
35 3 -1 12 8 19 21 7 14 21 27 31 29 11 3 17 1 14 -3 -3 -5 0 -10 5 -12 6 -2
12 -13 13 -26 0 -12 6 -22 12 -22 7 0 11 -28 10 -82 -1 -46 -3 -84 -4 -85 0
-2 -1 -6 -2 -10 0 -5 -8 -16 -17 -27 -9 -10 -16 -21 -15 -25 1 -3 -12 -21 -28
-40 -16 -19 -29 -31 -29 -26 0 4 -9 -2 -20 -15 -11 -13 -20 -20 -20 -15 0 4
-6 2 -13 -4 -8 -6 -17 -8 -20 -4 -4 3 -7 2 -7 -4 0 -5 -12 -9 -27 -9 -16 1
-36 -2 -45 -7 -10 -4 -18 -4 -18 1 0 4 -16 7 -35 7 -20 -1 -43 4 -53 11 -9 8
-25 14 -34 14 -10 0 -18 7 -18 16 0 8 -4 13 -8 10 -10 -6 -52 38 -52 53 0 5
-7 12 -16 15 -8 3 -12 10 -9 16 3 5 1 10 -6 10 -7 0 -9 3 -6 7 4 3 2 12 -4 20
-6 7 -8 13 -4 13 4 0 2 6 -4 14 -8 10 -9 16 -1 21 6 3 7 12 3 18 -10 17 -11
77 -1 83 5 3 6 10 3 15 -4 5 -2 9 3 9 6 0 13 11 16 25 4 14 11 25 16 25 5 0 7
8 3 18 -3 9 -3 14 1 10 4 -3 20 7 35 23 15 16 31 26 34 22 4 -3 7 0 7 8 0 8 9
16 20 17 11 1 29 3 39 4 11 1 19 5 19 8 -1 17 4 20 20 11 13 -7 22 -7 30 1z"/>
</g>
</svg>
